Coordinates
version=1
nRows=14
nColumns=24
inDegrees=yes

Units are S.I. units (second, meters, Newtons, ...)
Angles are in degrees.

endheader
time	pelvis_tilt	pelvis_list	pelvis_rotation	pelvis_tx	pelvis_ty	pelvis_tz	hip_flexion_r	hip_adduction_r	hip_rotation_r	knee_angle_r	ankle_angle_r	subtalar_angle_r	mtp_angle_r	hip_flexion_l	hip_adduction_l	hip_rotation_l	knee_angle_l	ankle_angle_l	subtalar_angle_l	mtp_angle_l	lumbar_extension	lumbar_bending	lumbar_rotation
      1.31300000	     -3.58234207	      5.61187169	     -1.29090230	      0.18195610	      0.91435136	      0.35649265	     18.28470248	     -9.46245175	    -10.13027709	    -71.08770845	     -7.61998327	      2.89673429	      9.30726902	     12.02796466	     10.27516908	     -1.82378740	    -13.40323927	      2.71661254	    -13.80687963	      1.64477640	     -6.34561062	     -9.22965263	      1.28304220
      1.31716667	     -3.65161812	      5.48271017	     -1.08091771	      0.18699596	      0.91512072	      0.35608059	     18.97914195	     -9.30705343	    -10.20020788	    -70.89710438	     -6.83309249	      3.05127663	      9.29849228	     11.51450584	     10.21145892	     -1.47620509	    -12.97602104	      2.74163054	    -13.84588903	      1.62108302	     -6.32025787	     -9.05729637	      1.01305165
      1.32133333	     -3.71231434	      5.32513216	     -0.85178357	      0.19199550	      0.91590691	      0.35566639	     19.63771418	     -9.11476512	    -10.28286691	    -70.61607248	     -6.07426266	      3.15444421	      9.30212974	     11.01241932	     10.10967937	     -1.14789870	    -12.58838739	      2.77024032	    -13.81995650	      1.60562830	     -6.32569471	     -8.85526654	      0.82685663
      1.32550000	     -3.74179283	      5.18729500	     -0.63878076	      0.19705253	      0.91672805	      0.35522839	     20.24437872	     -8.95351271	    -10.34112661	    -70.26004173	     -5.36471043	      3.40609000	      9.29495933	     10.42954249	     10.03619655	     -0.76208307	    -12.10533028	      2.78563193	    -13.91548914	      1.57107885	     -6.32740236	     -8.66650053	      0.47619859
      1.32966667	     -3.77605205	      5.00365481	     -0.39491805	      0.20203144	      0.91755291	      0.35479774	     20.82541457	     -8.72955625	    -10.41797675	    -69.80687475	     -4.68246126	      3.53175587	      9.29723492	      9.89724061	      9.90073391	     -0.41677168	    -11.70887248	      2.79705346	    -13.89811663	      1.54867093	     -6.36490395	     -8.43341061	      0.28813427
      1.33383333	     -3.76493759	      4.84960091	     -0.16663886	      0.20706862	      0.91842623	      0.35435729	     21.33843649	     -8.54999960	    -10.48009649	    -69.28619644	     -4.04096498	      3.75536476	      9.28310976	      9.26499323	      9.80140464	     -0.01465996	    -11.20602888	      2.77256836	    -14.01860080	      1.49428106	     -6.41721760	     -8.23884131	     -0.09012103
      1.33800000	     -3.75145777	      4.66376495	      0.07037597	      0.21205787	      0.91929054	      0.35391637	     21.82656771	     -8.32975469	    -10.54343147	    -68.68156575	     -3.44349331	      3.93841339	      9.27032877	      8.65762619	      9.65766573	      0.35706727	    -10.75555352	      2.78510241	    -14.05598750	      1.44232507	     -6.49132948	     -7.98534030	     -0.34357459
      1.34216667	     -3.72276292	      4.46819736	      0.31355679	      0.21703738	      0.92016135	      0.35346565	     22.27386019	     -8.10152445	    -10.61022634	    -67.99802882	     -2.88632291	      4.10646497	      9.26008462	      8.03843121	      9.49758281	      0.71521251	    -10.31021268	      2.80761297	    -14.07135302	      1.39612480	     -6.58389784	     -7.71867282	     -0.59157791
      1.34633333	     -3.70345667	      4.25248266	      0.56449658	      0.22198888	      0.92100505	      0.35304281	     22.70627099	     -7.84344875	    -10.67636909	    -67.23204897	     -2.33770592	      4.22205637	      9.25742174	      7.45470428	      9.30310585	      1.03016950	     -9.90724109	      2.80679360	    -14.03159366	      1.36710446	     -6.66612891	     -7.44714744	     -0.76967338
      1.35050000	     -3.61090478	      4.06277459	      0.79825175	      0.22697806	      0.92192245	      0.35259615	     23.04080036	     -7.62700657	    -10.73294314	    -66.40263575	     -1.86826768	      4.37923285	      9.24075070	      6.74352166	      9.13876201	      1.40548576	     -9.40552163	      2.82789360	    -14.08829891	      1.31638488	     -6.82337478	     -7.18294486	     -1.10149341
      1.35466667	     -3.54089737	      3.86818651	      1.04243029	      0.23192390	      0.92277523	      0.35216067	     23.38168472	     -7.39993820	    -10.78572942	    -65.50831501	     -1.38806565	      4.44632569	      9.20704093	      6.07705992	      8.96086293	      1.77010890	     -8.93144284	      2.76916180	    -14.16233734	      1.23555625	     -6.96283075	     -6.92263064	     -1.41589220
      1.35883333	     -3.45544786	      3.64807821	      1.28112587	      0.23687331	      0.92363231	      0.35174209	     23.67697557	     -7.14252664	    -10.83855465	    -64.52287996	     -0.99473486	      4.52379563	      9.18682894	      5.41128005	      8.74299554	      2.07552097	     -8.49228008	      2.82146179	    -14.13340435	      1.18883638	     -7.10280812	     -6.63094997	     -1.60356422
      1.36300000	     -3.35040214	      3.43556694	      1.51713530	      0.24181061	      0.92448004	      0.35133335	     23.93247999	     -6.89153943	    -10.88271160	    -63.47610020	     -0.61643510	      4.53758538	      9.15775236	      4.71916785	      8.52679487	      2.39178729	     -8.03286144	      2.82175123	    -14.13232419	      1.13145775	     -7.27960788	     -6.34399977	     -1.86224894
      1.36716667	     -3.26334603	      3.21311021	      1.75758371	      0.24672615	      0.92526523	      0.35093480	     24.18404673	     -6.62724455	    -10.92511918	    -62.35557673	     -0.25616690	      4.51872763	      9.13739098	      4.07506749	      8.29035619	      2.65868574	     -7.62290306	      2.82355106	    -14.09030814	      1.09344692	     -7.42516541	     -6.04892390	     -2.04051683
